<svg width="60" height="55" viewBox="0 0 60 55" fill="none" xmlns="http://www.w3.org/2000/svg">
<path d="M26.125 28.3594C27.1951 28.3594 28.0625 27.5899 28.0625 26.6406C28.0625 25.6914 27.1951 24.9219 26.125 24.9219C25.0549 24.9219 24.1875 25.6914 24.1875 26.6406C24.1875 27.5899 25.0549 28.3594 26.125 28.3594Z" fill="black"/>
<path d="M6.10864 16.3281C7.17869 16.3281 8.04614 15.5586 8.04614 14.6094C8.04614 13.6601 7.17869 12.8906 6.10864 12.8906C5.03859 12.8906 4.17114 13.6601 4.17114 14.6094C4.17114 15.5586 5.03859 16.3281 6.10864 16.3281Z" fill="black"/>
<path d="M33.875 28.3594C34.9451 28.3594 35.8125 27.5899 35.8125 26.6406C35.8125 25.6914 34.9451 24.9219 33.875 24.9219C32.8049 24.9219 31.9375 25.6914 31.9375 26.6406C31.9375 27.5899 32.8049 28.3594 33.875 28.3594Z" fill="black"/>
<path fill-rule="evenodd" clip-rule="evenodd" d="M29.9991 12.0332C17.2453 12.0332 6.74841 23.6658 6.74841 35.494C6.74841 47.4242 17.1354 55.0017 29.9991 55.0017C42.8629 55.0017 53.2498 47.4242 53.2498 35.494C53.2498 23.6658 42.7529 12.0332 29.9991 12.0332ZM29.9991 15.4704C40.772 15.4704 49.3732 25.503 49.3732 35.494C49.3732 45.3831 40.6621 51.5646 29.9991 51.5646C19.3362 51.5646 10.625 45.3831 10.625 35.494C10.625 25.503 19.2263 15.4704 29.9991 15.4704Z" fill="black"/>
<path fill-rule="evenodd" clip-rule="evenodd" d="M4.82216 8.49579C4.79116 8.03516 4.83766 7.57113 4.95972 7.11394C5.30266 5.83519 6.22491 4.73862 7.50753 4.08205L7.51529 4.07862C8.79791 3.42034 10.3285 3.2622 11.7487 3.63689C13.1689 4.01158 14.3508 4.88813 15.0192 6.06204L19.863 14.5578C17.1233 15.9896 14.6763 17.9627 12.6613 20.295C12.6613 20.2967 11.5782 18.8255 11.5782 18.8255C10.9931 18.0314 9.78991 17.808 8.89478 18.327C7.99966 18.8461 7.74972 19.9117 8.33485 20.7058L11.0008 24.3238C11.3651 24.817 11.987 25.111 12.6516 25.1024C13.3162 25.092 13.9284 24.7827 14.2752 24.2791C16.5053 21.0427 19.6227 18.3683 23.2749 16.8403C23.7477 16.6427 24.11 16.2834 24.2805 15.8452C24.451 15.4052 24.4122 14.9239 24.1778 14.5114L18.4777 4.51001C17.3287 2.49392 15.2963 0.986593 12.855 0.342062C10.4138 -0.30247 7.78266 -0.0274674 5.57779 1.10175L5.57003 1.10519C3.36516 2.23441 1.78029 4.11987 1.18935 6.31643C0.980099 7.1019 0.900659 7.90113 0.952971 8.69175C1.01303 9.63878 1.92947 10.3641 2.99703 10.3091C4.0646 10.2558 4.88222 9.44282 4.82216 8.49579Z" fill="black"/>
<path fill-rule="evenodd" clip-rule="evenodd" d="M45.7248 24.2791C46.0716 24.7827 46.6838 25.092 47.3484 25.1024C48.0129 25.111 48.6349 24.817 48.9991 24.3238L57.5513 12.7205C58.9463 10.8299 59.3996 8.51471 58.8106 6.31643C58.2197 4.11987 56.6348 2.23441 54.4299 1.10519L54.4222 1.10175C52.2173 -0.0274674 49.5862 -0.30247 47.1449 0.342062C44.7037 0.986593 42.6712 2.49392 41.5223 4.51001L35.8222 14.5114C35.5877 14.9239 35.549 15.4052 35.7195 15.8452C35.89 16.2834 36.2523 16.6427 36.7251 16.8403C40.3773 18.3683 43.4947 21.0427 45.7248 24.2791ZM47.3387 20.295C45.3237 17.9627 42.8766 15.9896 40.137 14.5578L44.9807 6.06204C45.6492 4.88813 46.8311 4.01158 48.2512 3.63689C49.6714 3.2622 51.2021 3.42034 52.4847 4.07862L52.4924 4.08205C53.7751 4.73862 54.6973 5.83519 55.0403 7.11394C55.3832 8.39269 55.1197 9.74019 54.3079 10.8402L47.3387 20.295Z" fill="black"/>
<path fill-rule="evenodd" clip-rule="evenodd" d="M31.8973 35.234C31.8171 35.6723 31.6117 36.0796 31.2913 36.398C30.9463 36.7422 30.4889 36.9536 30.0005 36.9536C28.9306 36.9536 28.0623 37.7232 28.0623 38.6719C28.0623 39.6207 28.9306 40.3903 30.0005 40.3903C31.5678 40.3903 33.0795 39.787 34.1869 38.6822C35.2192 37.6536 35.8123 36.2627 35.8123 34.8073V34.806C35.811 33.0903 34.3006 31.7974 32.5808 31.7974H30.0005C28.9306 31.7974 28.0623 32.5669 28.0623 33.5157C28.0623 34.4644 28.9306 35.234 30.0005 35.234H31.8973Z" fill="black"/>
<path fill-rule="evenodd" clip-rule="evenodd" d="M28.1027 35.234H29.9995C31.0693 35.234 31.9376 34.4644 31.9376 33.5157C31.9376 32.5669 31.0693 31.7974 29.9995 31.7974H27.4192C25.6994 31.7974 24.1889 33.0903 24.1876 34.806V34.8073C24.1876 36.2627 24.7807 37.6536 25.8131 38.6822C26.9204 39.787 28.4322 40.3903 29.9995 40.3903C31.0693 40.3903 31.9376 39.6207 31.9376 38.6719C31.9376 37.7232 31.0693 36.9536 29.9995 36.9536C29.5111 36.9536 29.0537 36.7422 28.7087 36.398C28.3882 36.0796 28.1828 35.6723 28.1027 35.234Z" fill="black"/>
<path fill-rule="evenodd" clip-rule="evenodd" d="M28.0635 38.6717C28.0635 40.1083 26.6824 41.2499 25.0155 41.2499C23.6909 41.2499 22.5525 40.5337 22.1337 39.5154C21.7681 38.6245 20.6546 38.1647 19.6507 38.4884C18.6453 38.8135 18.1267 39.8004 18.494 40.6927C19.4447 43.0101 22.0007 44.6873 25.0155 44.6873C28.8513 44.6873 31.9392 41.9775 31.9392 38.6717C31.9392 37.7236 31.07 36.953 30.0013 36.953C28.9327 36.953 28.0635 37.7236 28.0635 38.6717Z" fill="black"/>
<path fill-rule="evenodd" clip-rule="evenodd" d="M37.8696 39.5154C37.4508 40.5337 36.3124 41.2499 34.9878 41.2499C33.3209 41.2499 31.9398 40.1083 31.9398 38.6717C31.9398 37.7236 31.0706 36.953 30.002 36.953C28.9333 36.953 28.0641 37.7236 28.0641 38.6717C28.0641 41.9775 31.152 44.6873 34.9878 44.6873C38.0026 44.6873 40.5587 43.0101 41.5093 40.6927C41.8766 39.8004 41.3581 38.8135 40.3526 38.4884C39.3488 38.1647 38.2353 38.6245 37.8696 39.5154Z" fill="black"/>
</svg>
